<svg width="48" height="48" viewBox="0 0 48 48" fill="none" xmlns="http://www.w3.org/2000/svg">
<mask id="mask0_1_133" style="mask-type:alpha" maskUnits="userSpaceOnUse" x="0" y="0" width="48" height="48">
<rect width="48" height="48" rx="24" fill="url(#paint0_linear_1_133)"/>
</mask>
<g mask="url(#mask0_1_133)">
<rect width="48" height="48" rx="24" fill="url(#paint1_radial_1_133)"/>
<path d="M23.6376 21.0666C24.7256 21.0666 25.7891 20.7421 26.6937 20.1341C27.5982 19.5261 28.3033 18.6619 28.7196 17.6508C29.136 16.6397 29.2449 15.5272 29.0326 14.4538C28.8204 13.3805 28.2965 12.3945 27.5272 11.6207C26.7579 10.8468 25.7778 10.3198 24.7108 10.1063C23.6437 9.89281 22.5377 10.0024 21.5326 10.4212C20.5275 10.84 19.6684 11.5492 19.064 12.4592C18.4595 13.3691 18.1369 14.4389 18.1369 15.5333C18.1369 17.0008 18.7165 18.4083 19.748 19.446C20.7796 20.4837 22.1788 21.0666 23.6376 21.0666Z" fill="#75787B"/>
<path d="M32.7162 35C33.1184 35 33.5042 34.8376 33.7886 34.5486C34.073 34.2596 34.2328 33.8676 34.2328 33.4589C34.2328 30.5978 33.1143 27.8539 31.1233 25.8309C29.1324 23.8078 26.432 22.6712 23.6164 22.6712C20.8007 22.6712 18.1004 23.8078 16.1094 25.8309C14.1185 27.8539 13 30.5978 13 33.4589C13 33.8676 13.1597 34.2596 13.4442 34.5486C13.7286 34.8376 14.1144 35 14.5166 35H32.7162Z" fill="#75787B"/>
</g>
<defs>
<linearGradient id="paint0_linear_1_133" x1="24" y1="0" x2="24" y2="48" gradientUnits="userSpaceOnUse">
<stop stop-color="#FAAB71"/>
<stop offset="1" stop-color="#FEE0C7"/>
</linearGradient>
<radialGradient id="paint1_radial_1_133" cx="0" cy="0" r="1" gradientUnits="userSpaceOnUse" gradientTransform="translate(24 24) rotate(90) scale(24)">
<stop offset="0.72" stop-color="white"/>
<stop offset="1" stop-color="#E0E0E0"/>
</radialGradient>
</defs>
</svg>

